<svg fill="none" height="109" viewBox="0 0 633 109" width="633" xmlns="http://www.w3.org/2000/svg" xmlns:xlink="http://www.w3.org/1999/xlink"><filter id="a" color-interpolation-filters="sRGB" filterUnits="userSpaceOnUse" height="52" width="52" x="94" y="38"><feFlood flood-opacity="0" result="BackgroundImageFix"/><feColorMatrix in="SourceAlpha" result="hardAlpha" type="matrix" values="0 0 0 0 0 0 0 0 0 0 0 0 0 0 0 0 0 0 127 0"/><feOffset dy="3"/><feGaussianBlur stdDeviation="3"/><feColorMatrix type="matrix" values="0 0 0 0 0.584314 0 0 0 0 0.615686 0 0 0 0 0.647059 0 0 0 0.15 0"/><feBlend in2="BackgroundImageFix" mode="normal" result="effect1_dropShadow"/><feBlend in="SourceGraphic" in2="effect1_dropShadow" mode="normal" result="shape"/></filter><filter id="b" color-interpolation-filters="sRGB" filterUnits="userSpaceOnUse" height="52" width="52" x="431" y="53"><feFlood flood-opacity="0" result="BackgroundImageFix"/><feColorMatrix in="SourceAlpha" result="hardAlpha" type="matrix" values="0 0 0 0 0 0 0 0 0 0 0 0 0 0 0 0 0 0 127 0"/><feOffset dy="3"/><feGaussianBlur stdDeviation="3"/><feColorMatrix type="matrix" values="0 0 0 0 0.584314 0 0 0 0 0.615686 0 0 0 0 0.647059 0 0 0 0.15 0"/><feBlend in2="BackgroundImageFix" mode="normal" result="effect1_dropShadow"/><feBlend in="SourceGraphic" in2="effect1_dropShadow" mode="normal" result="shape"/></filter><filter id="c" color-interpolation-filters="sRGB" filterUnits="userSpaceOnUse" height="52" width="52" x="270" y="9"><feFlood flood-opacity="0" result="BackgroundImageFix"/><feColorMatrix in="SourceAlpha" result="hardAlpha" type="matrix" values="0 0 0 0 0 0 0 0 0 0 0 0 0 0 0 0 0 0 127 0"/><feOffset dy="3"/><feGaussianBlur stdDeviation="3"/><feColorMatrix type="matrix" values="0 0 0 0 0.584314 0 0 0 0 0.615686 0 0 0 0 0.647059 0 0 0 0.15 0"/><feBlend in2="BackgroundImageFix" mode="normal" result="effect1_dropShadow"/><feBlend in="SourceGraphic" in2="effect1_dropShadow" mode="normal" result="shape"/></filter><filter id="d" color-interpolation-filters="sRGB" filterUnits="userSpaceOnUse" height="52" width="52" x="581" y="0"><feFlood flood-opacity="0" result="BackgroundImageFix"/><feColorMatrix in="SourceAlpha" result="hardAlpha" type="matrix" values="0 0 0 0 0 0 0 0 0 0 0 0 0 0 0 0 0 0 127 0"/><feOffset dy="3"/><feGaussianBlur stdDeviation="3"/><feColorMatrix type="matrix" values="0 0 0 0 0.584314 0 0 0 0 0.615686 0 0 0 0 0.647059 0 0 0 0.15 0"/><feBlend in2="BackgroundImageFix" mode="normal" result="effect1_dropShadow"/><feBlend in="SourceGraphic" in2="effect1_dropShadow" mode="normal" result="shape"/></filter><filter id="e" color-interpolation-filters="sRGB" filterUnits="userSpaceOnUse" height="36" width="36" x="373" y="8"><feFlood flood-opacity="0" result="BackgroundImageFix"/><feColorMatrix in="SourceAlpha" result="hardAlpha" type="matrix" values="0 0 0 0 0 0 0 0 0 0 0 0 0 0 0 0 0 0 127 0"/><feOffset dy="3"/><feGaussianBlur stdDeviation="3"/><feColorMatrix type="matrix" values="0 0 0 0 0.584314 0 0 0 0 0.615686 0 0 0 0 0.647059 0 0 0 0.15 0"/><feBlend in2="BackgroundImageFix" mode="normal" result="effect1_dropShadow"/><feBlend in="SourceGraphic" in2="effect1_dropShadow" mode="normal" result="shape"/></filter><filter id="f" color-interpolation-filters="sRGB" filterUnits="userSpaceOnUse" height="36" width="36" x="200" y="57"><feFlood flood-opacity="0" result="BackgroundImageFix"/><feColorMatrix in="SourceAlpha" result="hardAlpha" type="matrix" values="0 0 0 0 0 0 0 0 0 0 0 0 0 0 0 0 0 0 127 0"/><feOffset dy="3"/><feGaussianBlur stdDeviation="3"/><feColorMatrix type="matrix" values="0 0 0 0 0.584314 0 0 0 0 0.615686 0 0 0 0 0.647059 0 0 0 0.15 0"/><feBlend in2="BackgroundImageFix" mode="normal" result="effect1_dropShadow"/><feBlend in="SourceGraphic" in2="effect1_dropShadow" mode="normal" result="shape"/></filter><filter id="g" color-interpolation-filters="sRGB" filterUnits="userSpaceOnUse" height="36" width="36" x="527" y="61"><feFlood flood-opacity="0" result="BackgroundImageFix"/><feColorMatrix in="SourceAlpha" result="hardAlpha" type="matrix" values="0 0 0 0 0 0 0 0 0 0 0 0 0 0 0 0 0 0 127 0"/><feOffset dy="3"/><feGaussianBlur stdDeviation="3"/><feColorMatrix type="matrix" values="0 0 0 0 0.584314 0 0 0 0 0.615686 0 0 0 0 0.647059 0 0 0 0.15 0"/><feBlend in2="BackgroundImageFix" mode="normal" result="effect1_dropShadow"/><feBlend in="SourceGraphic" in2="effect1_dropShadow" mode="normal" result="shape"/></filter><filter id="h" color-interpolation-filters="sRGB" filterUnits="userSpaceOnUse" height="36" width="36" x="0" y="73"><feFlood flood-opacity="0" result="BackgroundImageFix"/><feColorMatrix in="SourceAlpha" result="hardAlpha" type="matrix" values="0 0 0 0 0 0 0 0 0 0 0 0 0 0 0 0 0 0 127 0"/><feOffset dy="3"/><feGaussianBlur stdDeviation="3"/><feColorMatrix type="matrix" values="0 0 0 0 0.584314 0 0 0 0 0.615686 0 0 0 0 0.647059 0 0 0 0.15 0"/><feBlend in2="BackgroundImageFix" mode="normal" result="effect1_dropShadow"/><feBlend in="SourceGraphic" in2="effect1_dropShadow" mode="normal" result="shape"/></filter><clipPath id="i"><path d="m598.2 15h16v16h-16z"/></clipPath><g filter="url(#a)"><circle cx="120" cy="61" fill="#fff" r="20"/></g><path d="m114.756 66.25c.004-.0839.01-.1672.018-.25.251-2.665 2.495-4.75 5.226-4.75s4.975 2.085 5.227 4.75c.007.0828.013.1661.017.25" stroke="#586069" stroke-linecap="round" stroke-width="1.5"/><circle cx="120" cy="58" r="3.25" stroke="#586069" stroke-width="1.5"/><g filter="url(#b)"><circle cx="457" cy="76" fill="#fff" r="20"/></g><path clip-rule="evenodd" d="m453.75 69.5c-.69 0-1.25.5596-1.25 1.25s.56 1.25 1.25 1.25h2.309c-.233-.8176-.542-1.4011-.878-1.7932-.43-.5017-.915-.7068-1.431-.7068zm-2.75 1.25c0 .4501.108.875.3 1.25h-.55c-.966 0-1.75.7835-1.75 1.75v2c0 .6981.409 1.3007 1 1.5816v4.9184c0 .9665.783 1.75 1.75 1.75h10.5c.967 0 1.75-.7835 1.75-1.75v-4.9184c.591-.2809 1-.8835 1-1.5816v-2c0-.9665-.783-1.75-1.75-1.75h-.55c.192-.375.3-.7999.3-1.25 0-1.5188-1.231-2.75-2.75-2.75-.984 0-1.874.4199-2.569 1.2307-.256.2984-.483.6465-.681 1.0423-.198-.3958-.425-.7439-.681-1.0423-.695-.8108-1.585-1.2307-2.569-1.2307-1.519 0-2.75 1.2312-2.75 2.75zm6.941 1.25h2.309c.69 0 1.25-.5596 1.25-1.25s-.56-1.25-1.25-1.25c-.516 0-1 .2051-1.431.7068-.336.3921-.645.9756-.878 1.7932zm-7.191 1.5c-.138 0-.25.1119-.25.25v2c0 .1381.112.25.25.25h5.5v-2.5zm7 0v2.5h5.5c.138 0 .25-.1119.25-.25v-2c0-.1381-.112-.25-.25-.25zm0 4h4.75v4.75c0 .1381-.112.25-.25.25h-4.5zm-1.5 0v5h-4.5c-.138 0-.25-.1119-.25-.25v-4.75z" fill="#586069" fill-rule="evenodd"/><g filter="url(#c)"><circle cx="296" cy="32" fill="#fff" r="20"/></g><path clip-rule="evenodd" d="m289.75 27.5c-.138 0-.25.1119-.25.25v8.5c0 .1381.112.25.25.25h12.5c.138 0 .25-.1119.25-.25v-8.5c0-.1381-.112-.25-.25-.25zm-1.75.25c0-.9665.784-1.75 1.75-1.75h12.5c.966 0 1.75.7835 1.75 1.75v8.5c0 .9665-.784 1.75-1.75 1.75h-12.5c-.966 0-1.75-.7835-1.75-1.75z" fill="#586069" fill-rule="evenodd"/><path d="m294 34.5585v-5.117c0-.1943.212-.3143.379-.2143l4.264 2.5584c.162.0971.162.3317 0 .4288l-4.264 2.5584c-.167.1-.379-.02-.379-.2143z" fill="#586069"/><g filter="url(#d)"><circle cx="607" cy="23" fill="#fff" r="20"/></g><g clip-path="url(#i)"><path clip-rule="evenodd" d="m613.771 15.5723c.262.1241.429.3879.429.6777l-1.223-.5819v-.0001l.001-.0006c0-.0002 0 .0001-.001.001l-.015.0112c-.015.0113-.04.0304-.076.0561-.072.0513-.187.1291-.344.2247-.315.1911-.802.4534-1.464.7183-1.322.5287-3.351 1.0708-6.124 1.0713-.249-.1583-.544-.25-.861-.25h-1.893c-2.209 0-4 1.7909-4 4 0 1.6791 1.035 3.1166 2.501 3.7097 0 .0133-.001.0268-.001.0403 0 2.3193.486 3.9307.813 4.7506.262.6587.897.9994 1.518.9994h1.196c.685 0 1.228-.3885 1.546-.8573.317-.466.468-1.0895.31-1.6961-.2-.7668-.382-1.8343-.383-3.1831 2.394.0866 4.178.5778 5.378 1.0579.662.2648 1.149.5271 1.464.7183.157.0955.272.1733.344.2246.036.0257.061.0448.076.0562l.015.0111.001.0009c.224.1818.532.2189.793.0953.262-.1241.429-.388.429-.6778v-10.5l-1.223-.5816v-.0003c.224-.1823.533-.2196.794-.0958zm-11.569 9.9277c.033 1.9687.45 3.3059.704 3.9458.005.0105.011.02.027.0301.019.0116.052.0241.098.0241h1.196c.083 0 .202-.0471.305-.1997.106-.1553.135-.3389.1-.4753-.218-.8352-.409-1.9511-.43-3.3286-.036.0024-.072.0036-.109.0036zm3.498-1.7374c2.601.0876 4.573.6212 5.935 1.1661.411.1643.766.3295 1.065.4832v-7.8238c-.299.1538-.654.3189-1.065.4833-1.362.5448-3.334 1.0784-5.935 1.1661zm7.277-8.0942-.001.0003zm-13.277 5.8316c0-1.3807 1.119-2.5 2.5-2.5h1.893c.059 0 .107.048.107.1071v4.7858c0 .0591-.048.1071-.107.1071h-1.893c-1.381 0-2.5-1.1193-2.5-2.5z" fill="#586069" fill-rule="evenodd"/></g><g filter="url(#e)"><circle cx="391" cy="23" fill="#fff" r="12"/></g><path clip-rule="evenodd" d="m388.54 19.4148c.219-.2197.576-.2197.795 0 .22.2196.22.5758 0 .7954l-2.79 2.7898 2.79 2.7898c.22.2196.22.5757 0 .7954-.219.2197-.576.2197-.795 0l-3.188-3.1875c-.219-.2196-.219-.5758 0-.7954zm4.92 0c-.219-.2197-.576-.2197-.795 0-.22.2196-.22.5758 0 .7954l2.789 2.7898-2.789 2.7898c-.22.2196-.22.5757 0 .7954.219.2197.576.2197.795 0l3.188-3.1875c.219-.2196.219-.5758 0-.7954z" fill="#959da5" fill-rule="evenodd"/><g filter="url(#f)"><circle cx="218" cy="72" fill="#fff" r="12"/></g><path clip-rule="evenodd" d="m217.383 68.3048 1.797-1.7974c.118-.1181.32-.0344.32.1326v3.5947c0 .167-.202.2507-.32.1326l-1.797-1.7973c-.074-.0733-.074-.192 0-.2652zm-2.945-.4299c-.311 0-.563.2518-.563.5625 0 .3106.252.5625.563.5625.31 0 .562-.2519.562-.5625 0-.3107-.252-.5625-.562-.5625zm-1.688.5625c0-.932.756-1.6875 1.688-1.6875.931 0 1.687.7555 1.687 1.6875 0 .7347-.47 1.3598-1.125 1.5915v3.942c.655.2317 1.125.8567 1.125 1.5915 0 .9319-.756 1.6875-1.687 1.6875-.932 0-1.688-.7556-1.688-1.6875 0-.7348.47-1.3598 1.125-1.5915v-3.942c-.655-.2317-1.125-.8568-1.125-1.5915zm7.5-.5625h-.75v1.125h.75c.414 0 .75.3358.75.75v4.221c-.655.2317-1.125.8567-1.125 1.5915 0 .9319.756 1.6875 1.687 1.6875.932 0 1.688-.7556 1.688-1.6875 0-.7348-.47-1.3598-1.125-1.5915v-4.221c0-1.0356-.839-1.875-1.875-1.875zm-6.375 7.6875c0-.3107.252-.5625.563-.5625.31 0 .562.2518.562.5625 0 .3106-.252.5625-.562.5625-.311 0-.563-.2519-.563-.5625zm7.125 0c0-.3107.252-.5625.562-.5625.311 0 .563.2518.563.5625 0 .3106-.252.5625-.563.5625-.31 0-.562-.2519-.562-.5625z" fill="#959da5" fill-rule="evenodd"/><g filter="url(#g)"><circle cx="545" cy="76" fill="#fff" r="12"/></g><path clip-rule="evenodd" d="m540.157 75.4375h2.05c.108-1.5556.649-2.8172 1.186-3.7113.088-.1478.177-.2858.264-.4138-1.865.5333-3.273 2.1496-3.5 4.1251zm2.05 1.125h-2.05c.227 1.9755 1.635 3.5918 3.5 4.1252-.087-.1281-.176-.2662-.264-.414-.537-.8941-1.078-2.1556-1.186-3.7112zm1.128 0h3.33c-.106 1.3016-.562 2.3648-1.022 3.1325-.23.3828-.459.6893-.643.9117-.184-.2224-.413-.5289-.643-.9117-.46-.7677-.916-1.8309-1.022-3.1325zm3.33-1.125h-3.33c.106-1.3017.562-2.3649 1.022-3.1325.23-.3828.459-.6894.643-.9117.184.2223.413.5289.643.9117.46.7676.916 1.8308 1.022 3.1325zm1.128 1.125c-.108 1.5556-.649 2.8171-1.186 3.7112-.088.1478-.177.2859-.264.414 1.865-.5334 3.273-2.1497 3.5-4.1252zm2.05-1.125h-2.05c-.108-1.5556-.649-2.8172-1.186-3.7113-.088-.1478-.177-.2858-.264-.4138 1.865.5333 3.273 2.1496 3.5 4.1251zm-4.843-5.4375c-3.314 0-6 2.6863-6 6s2.686 6 6 6 6-2.6863 6-6-2.686-6-6-6z" fill="#959da5" fill-rule="evenodd"/><g filter="url(#h)"><circle cx="18" cy="88" fill="#fff" r="12"/></g><path clip-rule="evenodd" d="m21.5704 84.2893-3.5707-2.0618-3.57 2.061 3.5707 2.0618zm-7.7025.9735v4.122l3.57 2.061v-4.1213zm4.695 6.1822 3.5685-2.0602v-4.1205l-3.5685 2.0602zm-1.1257-10.1917c.171-.0988.365-.1508.5625-.1508s.3915.052.5625.1508l4.1325 2.385c.1711.0988.3132.2409.412.4121.0987.1711.1506.3653.1505.5629v4.7715c0 .1974-.052.3915-.1508.5625-.0987.171-.2407.313-.4117.4117l-4.1325 2.385c-.171.0988-.365.1508-.5625.1508s-.3915-.052-.5625-.1508l-4.1325-2.385c-.1711-.0988-.3132-.2409-.412-.4121-.0987-.1712-.1506-.3653-.1505-.5629v-4.77c-.0001-.1976.0518-.3917.1505-.5629.0988-.1712.2409-.3133.412-.4121l4.1332-2.385z" fill="#959da5" fill-rule="evenodd"/></svg>