<svg xmlns="http://www.w3.org/2000/svg" width="32" height="32" viewBox="0 0 32 32"><g transform="translate(2515.97 296.297)"><path fill="#c5e7f0" d="m -2503.7574,-267.9223 13.3976,-19.8426 c 0.7073,-0.9298 0.7368,-2.1421 0.5668,-3.2174 -0.071,-0.4516 -0.6455,-1.2254 -0.6455,-1.2254 l 0.427,-0.6319 c -0.7682,-0.8361 -1.8983,-1.2793 -3.0558,-1.1993 -1.1574,0.08 -2.2096,0.6754 -2.8449,1.6089 l -13.7163,20.2538 z"/><path fill="#d1edf1" d="m -2504.7412,-276.316 c 0.8114,0.2353 1.5978,0.4703 2.229,1.2067 l 12.5007,-17.7303 c -0.7682,-0.8361 -1.8983,-1.2793 -3.0558,-1.1993 -1.1574,0.08 -2.2096,0.6754 -2.8449,1.6089 l -10.8259,15.9777 c 0,0 1.3561,-0.05 1.9969,0.1363 z"/><path fill="none" stroke="#586597" stroke-linecap="round" stroke-linejoin="round" d="m -2504.7412,-276.316 c 0.8073,0.064 1.5978,0.4703 2.229,1.2067 l 12.5007,-17.7303"/><path fill="#fe8099" d="m -2500.1403,-283.8763 c -0.8686,0.028 -1.729,0.2888 -2.4707,0.7813 a 0.5,0.5 0 0 0 -0.1406,0.6933 0.5,0.5 0 0 0 0.6934,0.1406 c 1.158,-0.7689 2.7259,-0.8215 3.9414,-0.1269 1.2155,0.6945 1.8337,1.964 1.6094,3.2324 a 0.5,0.5 0 0 0 0.4043,0.5801 0.5,0.5 0 0 0 0.58,-0.4043 c 0.2998,-1.6951 -0.5466,-3.3891 -2.0976,-4.2754 -0.7755,-0.4431 -1.6509,-0.6489 -2.5196,-0.6211 z" color="#000" font-family="sans-serif" font-weight="400" overflow="visible" style="line-height:normal;font-variant-ligatures:normal;font-variant-position:normal;font-variant-caps:normal;font-variant-numeric:normal;font-variant-alternates:normal;font-variant-east-asian:normal;font-feature-settings:normal;font-variation-settings:normal;text-indent:0;text-align:start;text-decoration-line:none;text-decoration-style:solid;text-decoration-color:#000;text-transform:none;text-orientation:mixed;shape-padding:0;shape-margin:0;inline-size:0;isolation:auto;mix-blend-mode:normal"/><path fill="#d1edf1" d="m -2502.9833,-270.1619 a 3.6249995,3.6153345 0 0 1 -3.625,3.6153 3.6249995,3.6153345 0 0 1 -3.625,-3.6153 3.6249995,3.6153345 0 0 1 3.625,-3.6154 3.6249995,3.6153345 0 0 1 3.625,3.6154 z"/><path fill="#cfe1eb" d="m -2505.0255,-270.0466 a 1.4273841,1.3900343 0 0 1 -1.4273,1.39 1.4273841,1.3900343 0 0 1 -1.4274,-1.39 1.4273841,1.3900343 0 0 1 1.4274,-1.39 1.4273841,1.3900343 0 0 1 1.4273,1.39 z"/><path fill="none" stroke="#586597" stroke-linecap="round" stroke-linejoin="round" d="M-2501.8965-283.5691a4.022357 3.7118354 0 0 1 4.4669-.14294 4.022357 3.7118354 0 0 1 1.8523 3.75373M-2502.9833-270.1619a3.6249995 3.6153345 0 0 1-3.625 3.6153 3.6249995 3.6153345 0 0 1-3.625-3.6153 3.6249995 3.6153345 0 0 1 3.625-3.6154 3.6249995 3.6153345 0 0 1 3.625 3.6154z"/><path fill="none" stroke="#586597" stroke-linecap="round" stroke-linejoin="round" d="M-2503.7574-267.9223l13.3976-19.8426c.7073-.9298.7368-2.1421.5668-3.2174-.071-.4516-.6455-1.2254-.6455-1.2254M-2496.0195-279.3865l.6104 4.8719M-2491.7398-278.7853l-4.2722-.6085M-2505.0255-270.0466a1.4273841 1.3900343 0 0 1-1.4273 1.39 1.4273841 1.3900343 0 0 1-1.4274-1.39 1.4273841 1.3900343 0 0 1 1.4274-1.39 1.4273841 1.3900343 0 0 1 1.4273 1.39z"/><path fill="none" stroke="#586597" d="m -2506.5379,-271.42598 c -1.3658,-0.15528 -2.596,0.85362 -2.7479,2.14653 -0.1008,0.85806 0.2758,1.72169 0.9661,2.27148"/><path fill="none" stroke="#586597" stroke-linecap="round" stroke-linejoin="round" d="m -2502.9592,-282.07447 a 4.022357,3.7118354 0 0 1 4.4669,-0.14294 4.022357,3.7118354 0 0 1 1.8523,3.75373"/><path fill="none" stroke="#586597" stroke-linecap="round" stroke-linejoin="round" d="m -2490.0115,-292.8396 c -0.7682,-0.8361 -1.8983,-1.2793 -3.0558,-1.1993 -1.1574,0.08 -2.2096,0.6754 -2.8449,1.6089 l -13.7163,20.2538"/></g></svg>