<svg xmlns="http://www.w3.org/2000/svg" data-name="Layer 1" viewBox="0 0 128 128"><path d="M87.5188,74.01172A33.02206,33.02206,0,0,1,83.45966,78H87.022C101.89795,78,114,89.12207,114,102.793v19.25781A1.97694,1.97694,0,0,1,112,124H16a1.97694,1.97694,0,0,1-2-1.94922V102.793C14,89.12207,26.10205,78,40.978,78h4.17529a32.8445,32.8445,0,0,1-4.06158-4H40.978C23.89648,74,10,86.916,10,102.793v19.25781A5.98151,5.98151,0,0,0,16,128h96a5.98151,5.98151,0,0,0,6-5.94922V102.793C118,87.07086,104.37115,74.26031,87.5188,74.01172Z"/><path d="M91.86456,53.64941a11.3307,11.3307,0,0,1-2.86749.34924H39.00586a11.60119,11.60119,0,0,1-2.36285-.241A38.57285,38.57285,0,0,0,39.12207,63.274c4.49219,10.76758,14.38037,17.72461,25.19141,17.72461C78.66046,80.99866,90.491,68.97955,91.86456,53.64941Z"/><path d="M94.0293,57.11084a4.23456,4.23456,0,0,0,1.082,3.336A4.806,4.806,0,0,0,98.68262,62h2.63477a4.806,4.806,0,0,0,3.57129-1.55316,4.23456,4.23456,0,0,0,1.082-3.336c-.25153-2.1026-1.2074-8.12164-3.9707-10.16187V20.5174a3.17568,3.17568,0,0,0,.082-5.86615L67.69336.33948A4.39058,4.39058,0,0,0,64.31445.33661L29.856,14.67816a3.17773,3.17773,0,0,0,.19922,5.86273l3.94556,1.44965.00513,23.30206c.00049,3.26007,1.68311,4.91321,5,4.91321H88.99707c3.31787,0,5-1.65314,5-4.91321l.0022-21.83313L98,21.98932V46.949C95.23669,48.9892,94.28082,55.00824,94.0293,57.11084ZM89.99707,45.2926a2.8699,2.8699,0,0,1-.09473.88232,3.00448,3.00448,0,0,1-.90527.09418H39.00586a2.9999,2.9999,0,0,1-.90479-.09418,2.84819,2.84819,0,0,1-.09521-.88324l-.00067-2.95923H89.99744Zm.00085-6.89685H38.00427l-.00311-14.93542,26.513,9.74121a4.41865,4.41865,0,0,0,2.98926-.0058l22.49609-8.26648ZM100,50.56384a19.06405,19.06405,0,0,1,1.998,7.00641.31007.31007,0,0,1-.09863.2605.78644.78644,0,0,1-.582.23254H98.68262a.78644.78644,0,0,1-.582-.23254.31007.31007,0,0,1-.09863-.2605A19.06405,19.06405,0,0,1,100,50.56384Z"/><circle cx="64" cy="87" r="2"/><circle cx="64" cy="95" r="2"/><circle cx="64" cy="103" r="2"/></svg>